<svg width="10" height="15" viewBox="0 0 10 15" fill="none">
<path d="M3.18523 1.24331C3.21189 1.1526 3.26722 1.07297 3.34293 1.01634C3.41864 0.959718 3.51066 0.929144 3.6052 0.929199H7.10499C7.17428 0.929252 7.24255 0.945758 7.30421 0.97736C7.36586 1.00896 7.41913 1.05476 7.45963 1.11097C7.50012 1.16718 7.52669 1.23221 7.53713 1.3007C7.54758 1.36919 7.54161 1.43918 7.51972 1.50491L5.96231 6.17889H9.29236C9.37429 6.17883 9.45458 6.20178 9.5241 6.24512C9.59363 6.28846 9.64958 6.35045 9.6856 6.42403C9.72161 6.49762 9.73625 6.57984 9.72782 6.66133C9.7194 6.74282 9.68827 6.82031 9.63797 6.88497L3.51333 14.7595C3.45059 14.8406 3.36138 14.897 3.26126 14.919C3.16114 14.941 3.05648 14.9271 2.96554 14.8799C2.8746 14.8326 2.80315 14.7548 2.76367 14.6602C2.72419 14.5656 2.71917 14.4602 2.7495 14.3623L4.32528 9.24121H1.41783C1.34982 9.24124 1.28273 9.22542 1.2219 9.195C1.16107 9.16458 1.10817 9.1204 1.0674 9.06595C1.02663 9.01151 0.999121 8.94831 0.987049 8.88138C0.974977 8.81444 0.978678 8.74562 0.997858 8.68036L3.18523 1.24331Z" fill="currentColor"/>
</svg>
