<svg width="14" height="14" viewBox="0 0 14 14" fill="none">
<g>
<path fill-rule="evenodd" clip-rule="evenodd" d="M8.82976 5.50904C8.82976 6.08368 8.60149 6.63478 8.19516 7.04111C7.78883 7.44744 7.23773 7.67571 6.6631 7.67571C6.08846 7.67571 5.53736 7.44744 5.13103 7.04111C4.7247 6.63478 4.49643 6.08368 4.49643 5.50904C4.49643 4.93441 4.7247 4.38331 5.13103 3.97698C5.53736 3.57065 6.08846 3.34238 6.6631 3.34238C7.23773 3.34238 7.78883 3.57065 8.19516 3.97698C8.60149 4.38331 8.82976 4.93441 8.82976 5.50904ZM7.74643 5.50904C7.74643 5.79636 7.63229 6.07191 7.42913 6.27508C7.22596 6.47824 6.95041 6.59238 6.6631 6.59238C6.37578 6.59238 6.10023 6.47824 5.89706 6.27508C5.6939 6.07191 5.57976 5.79636 5.57976 5.50904C5.57976 5.22173 5.6939 4.94618 5.89706 4.74301C6.10023 4.53985 6.37578 4.42571 6.6631 4.42571C6.95041 4.42571 7.22596 4.53985 7.42913 4.74301C7.63229 4.94618 7.74643 5.22173 7.74643 5.50904Z" fill="currentColor"/>
<path fill-rule="evenodd" clip-rule="evenodd" d="M6.66309 1.1757C3.37247 1.1757 0.704758 3.84341 0.704758 7.13404C0.704758 10.4247 3.37247 13.0924 6.66309 13.0924C9.95372 13.0924 12.6214 10.4247 12.6214 7.13404C12.6214 3.84341 9.95372 1.1757 6.66309 1.1757ZM1.78809 7.13404C1.78809 8.26612 2.1743 9.30829 2.82159 10.136C3.27617 9.53898 3.86262 9.05519 4.53512 8.72237C5.20761 8.38956 5.94795 8.21672 6.6983 8.21737C7.43894 8.21667 8.16996 8.38503 8.83568 8.70963C9.5014 9.03423 10.0842 9.5065 10.5398 10.0905C11.0091 9.47491 11.3251 8.75645 11.4617 7.99452C11.5982 7.2326 11.5513 6.44912 11.3249 5.7089C11.0986 4.96869 10.6992 4.29302 10.1598 3.73781C9.62046 3.18259 8.95664 2.7638 8.2233 2.51606C7.48995 2.26833 6.70816 2.19879 5.9426 2.31319C5.17704 2.42759 4.44973 2.72265 3.82084 3.17394C3.19195 3.62524 2.67957 4.2198 2.32609 4.90844C1.97261 5.59707 1.78819 6.35998 1.78809 7.13404ZM6.66309 12.009C5.54398 12.0107 4.45865 11.6257 3.59076 10.9192C3.94009 10.4191 4.40507 10.0108 4.94611 9.72899C5.48716 9.4472 6.08827 9.30027 6.6983 9.3007C7.30072 9.30022 7.89456 9.44347 8.43051 9.71856C8.96646 9.99365 9.42904 10.3926 9.77984 10.8824C8.90521 11.6118 7.80199 12.0106 6.66309 12.009Z" fill="currentColor"/>
</g>
</svg>
